<svg width="148" height="32" viewBox="0 0 148 32" fill="none" xmlns="http://www.w3.org/2000/svg">
<path d="M51.1964 23V12.4743H47.4372V10.7608H56.8439V12.4743H53.0847V23H51.1964ZM57.931 23V10.7608H65.6417V12.4743H59.8194V15.9887H65.1522V17.7022H59.8194V21.2865H65.7291V23H57.931ZM67.0733 23V10.7608H70.6227L73.2978 21.7411H73.5776L76.2527 10.7608H79.8021V23H77.9662V12.0896H77.6865L75.0288 23H71.8466L69.189 12.0896H68.9092V23H67.0733ZM81.7308 23V10.7608H86.5915C87.3375 10.7608 88.0019 10.9124 88.5847 11.2154C89.1792 11.5068 89.6396 11.9265 89.966 12.4743C90.304 13.0105 90.4731 13.6574 90.4731 14.4151V14.6424C90.4731 15.4001 90.2982 16.0528 89.9485 16.6007C89.6105 17.1485 89.1501 17.5681 88.5672 17.8595C87.9844 18.151 87.3258 18.2967 86.5915 18.2967H83.6191V23H81.7308ZM83.6191 16.5832H86.3992C87.0636 16.5832 87.5939 16.4083 87.9903 16.0586C88.3866 15.7089 88.5847 15.231 88.5847 14.6249V14.4501C88.5847 13.8323 88.3866 13.3485 87.9903 12.9988C87.5939 12.6492 87.0636 12.4743 86.3992 12.4743H83.6191V16.5832ZM91.6415 23V10.7608H93.5298V21.2865H99.4221V23H91.6415ZM99.6184 23L103.115 10.7608H106.437L109.917 23H107.976L107.172 20.1151H102.381L101.577 23H99.6184ZM102.853 18.3666H106.7L104.916 11.9323H104.637L102.853 18.3666ZM112.641 23V12.4743H108.882V10.7608H118.289V12.4743H114.529V23H112.641ZM119.376 23V10.7608H127.086V12.4743H121.264V15.9887H126.597V17.7022H121.264V21.2865H127.174V23H119.376Z" fill="white"/>
<circle cx="32.0401" cy="16.5283" r="8.0722" stroke="white" stroke-width="1.5" stroke-dasharray="2.5 2.5"/>
<path d="M27.6554 8.87184C28.6607 8.29602 29.7696 7.92385 30.9188 7.77658C32.0679 7.62931 33.2348 7.70982 34.3528 8.01352C35.4709 8.31722 36.5181 8.83816 37.4349 9.54659C38.3516 10.255 39.1198 11.1371 39.6956 12.1424C40.2714 13.1477 40.6436 14.2566 40.7908 15.4058C40.9381 16.5549 40.8576 17.7218 40.5539 18.8398C40.2502 19.9579 39.7293 21.0051 39.0208 21.9219C38.3124 22.8386 37.4303 23.6068 36.425 24.1826L32.0402 16.5272L27.6554 8.87184Z" fill="white"/>
<rect x="24.0001" y="4.75" width="1.5" height="27.4247" transform="rotate(-30 24.0001 4.75)" fill="white"/>
</svg>
